<svg width="24" height="24" viewBox="0 0 24 24" fill="none" xmlns="http://www.w3.org/2000/svg">
<path fill-rule="evenodd" clip-rule="evenodd" d="M3.99992 2.6665C2.52716 2.6665 1.33325 3.86041 1.33325 5.33317V10.6665C1.33325 12.1393 2.52716 13.3332 3.99992 13.3332H11.9999C13.4727 13.3332 14.6666 12.1393 14.6666 10.6665V5.33317C14.6666 3.86041 13.4727 2.6665 11.9999 2.6665H3.99992ZM13.1728 4.23264C12.9331 3.95309 12.5123 3.92072 12.2327 4.16033L7.99992 7.78845L3.76711 4.16033C3.48756 3.92072 3.0667 3.95309 2.82708 4.23264C2.58747 4.51219 2.61984 4.93306 2.89939 5.17267L7.56606 9.17267C7.81572 9.38667 8.18412 9.38667 8.43378 9.17267L13.1004 5.17267C13.38 4.93306 13.4124 4.51219 13.1728 4.23264Z" fill="white"/>
</svg>
