<?xml version="1.0" standalone="no"?>
<!DOCTYPE svg PUBLIC "-//W3C//DTD SVG 20010904//EN"
 "http://www.w3.org/TR/2001/REC-SVG-20010904/DTD/svg10.dtd">
<svg version="1.0" xmlns="http://www.w3.org/2000/svg"
 width="700.000000pt" height="700.000000pt" viewBox="0 0 700.000000 700.000000"
 preserveAspectRatio="xMidYMid meet">
<metadata>
Created by potrace 1.11, written by Peter Selinger 2001-2013
</metadata>
<g transform="translate(0.000000,700.000000) scale(0.100000,-0.100000)"
fill="#000000" stroke="none">
<path d="M919 6966 c-2 -2 -25 -7 -51 -10 -297 -40 -591 -254 -732 -534 -35
-69 -82 -213 -93 -282 -4 -30 -8 -1227 -8 -2660 l0 -2605 28 -100 c32 -119
100 -259 166 -347 110 -145 278 -270 450 -334 180 -68 -14 -64 2851 -61 1427
1 2604 5 2615 9 11 3 42 11 69 17 273 63 541 284 661 545 31 66 63 165 82 246
4 19 8 1203 10 2630 2 2766 4 2648 -43 2795 -80 248 -270 472 -501 588 -52 27
-176 71 -223 81 -14 2 -47 9 -75 15 -47 10 -5196 17 -5206 7z"/>
</g>
</svg>
